<svg width="66" height="55" viewBox="0 0 66 55" fill="none" xmlns="http://www.w3.org/2000/svg">
<path d="M0.687012 0.457L32.835 38.336L64.855 0.686L0.687012 0.457Z" fill="#23A9E1"/>
<path fill-rule="evenodd" clip-rule="evenodd" d="M42.42 14.719H25.1C24.8194 14.5918 24.4384 14.4492 24.012 14.2896C21.8142 13.467 18.4115 12.1934 21.347 10.252C22.8166 9.31859 23.8717 9.46836 24.869 9.60993C25.9583 9.76457 26.9786 9.90941 28.395 8.622C30.9745 6.28128 34.6699 9.9095 35.9353 11.1519C36.196 11.4079 36.3536 11.5626 36.377 11.543C37.6265 10.5022 39.6307 12.3043 41.1108 13.6352C41.6301 14.1022 42.0849 14.5112 42.42 14.719ZM51.83 11.241L41.97 11.295C45.866 6.795 47.617 7.277 51.83 11.241Z" fill="white"/>
<path fill-rule="evenodd" clip-rule="evenodd" d="M0 0.001H33.055L66 0V15.04L33.056 54.245L32.836 54.52L0 14.583V0.001ZM4.011 1.153V3.06L2.407 1.154L4.011 1.153ZM61.622 1.154V3.588L63.702 1.154H61.622ZM12.467 13.081L12.377 12.998L13.1963 13.9714L13.196 13.972L32.834 37.302L13.1963 13.9714C15.8513 9.42894 19.6532 8.74921 23.743 13.664C24.397 14.4815 24.7938 15.2248 25.112 15.8208C25.5626 16.6649 25.8556 17.2137 26.498 17.26C27.6367 17.3414 28.1967 16.5858 28.7536 15.8344C29.1958 15.2376 29.6362 14.6434 30.363 14.473C31.7842 14.139 32.4388 14.4977 33.0817 14.85C33.2856 14.9618 33.4884 15.0729 33.714 15.161C33.9962 15.2714 34.2599 15.3412 34.504 15.4058C35.131 15.5718 35.6286 15.7035 35.977 16.401C36.0931 16.633 36.1901 16.8652 36.2848 17.0919C36.7047 18.0974 37.0797 18.9953 38.879 19.294C41.4273 19.718 43.5817 18.7657 45.8233 17.7747C47.4303 17.0644 49.0821 16.3342 50.956 16.077L53.471 13.132C53.366 13.022 51.004 10.592 47.339 8.182C43.91 5.927 38.611 3.233 32.833 3.205C27.042 3.173 21.817 5.858 18.45 8.117C14.9069 10.4943 12.6345 12.9034 12.4757 13.0718L12.467 13.081ZM61.114 1.153H57.887V7.96L61.114 4.183V1.153ZM53.832 12.61V1.154H57.378V8.558L53.878 12.656C53.8632 12.6402 53.8478 12.6248 53.832 12.61ZM53.324 12.115V2.221L49.767 9.129C51.0081 10.0564 52.1956 11.0533 53.324 12.115ZM49.159 1.863V8.682C48.696 8.348 48.209 8.009 47.694 7.67C47.03 7.232 46.294 6.778 45.5 6.33L49.159 1.863ZM44.847 5.97V1.73L41.727 4.496C42.7921 4.9323 43.8336 5.42431 44.847 5.97ZM45.355 1.154H49.082L45.355 5.704V1.154ZM53.3 1.154H49.667L49.666 8.214L53.3 1.154ZM40.87 1.154H44.73L41.2 4.282C41.1346 4.2568 41.0681 4.23268 41.0017 4.20857C40.9573 4.19248 40.913 4.1764 40.869 4.16V1.154H40.87ZM40.361 3.974V1.571L37.261 3.087C38.3117 3.31806 39.3471 3.6143 40.361 3.974ZM36.158 1.613V2.873C35.4364 2.75191 34.7092 2.6678 33.979 2.621L36.158 1.613ZM31.64 2.616L29.392 1.574V2.869C30.128 2.746 30.878 2.659 31.64 2.616ZM25.272 1.571L28.337 3.069C27.277 3.298 26.254 3.597 25.271 3.944L25.272 1.571ZM25.578 1.154L28.882 2.771L28.883 1.154H25.578ZM32.448 2.429L29.694 1.154H32.448V2.429ZM35.938 1.154H33.057V2.488L35.938 1.154ZM36.816 1.154H40.056L36.816 2.738V1.154ZM20.895 1.155L24.405 4.265L24.764 4.13V1.155H20.895ZM20.787 1.738L23.88 4.479C22.8227 4.91873 21.7902 5.4158 20.787 5.968V1.738ZM20.115 6.346L16.475 1.866V8.756C17.6383 7.87955 18.8539 7.07473 20.115 6.346ZM12.31 2.224L15.896 9.198C14.6354 10.1717 13.4377 11.2241 12.31 12.349V2.224ZM12.332 1.154L15.966 8.224V1.154H12.332ZM20.278 5.739L16.552 1.154H20.278V5.739ZM4.52 3.664L7.747 7.497V1.154H4.52V3.664ZM8.255 1.154H11.8V12.314L8.254 8.102L8.255 1.154Z" fill="#491213"/>
<path d="M30.227 46.026L32.837 41.806L35.435 46.026L32.837 50.256L30.227 46.026Z" fill="#23A9E1"/>
<path fill-rule="evenodd" clip-rule="evenodd" d="M16.88 11.718C15.097 12.272 13.999 14.73 16.623 14.839H16.624C16.516 13.171 16.99 12.465 17.136 14.491C17.5687 14.471 18.0179 14.4591 18.4747 14.4469C20.1166 14.4034 21.8555 14.3572 23.27 13.923C22.13 12.832 18.575 11.19 16.88 11.718ZM22.793 22.985C17.197 22.939 20.98 14.337 22.884 14.857C25.074 15.553 24.828 23.051 22.793 22.985ZM25.333 20.13C25.223 22.102 26.211 21.799 26.756 20.175V20.174C26.7593 20.5328 26.7199 20.8944 26.6814 21.2468C26.5793 22.1831 26.4841 23.0555 27.215 23.644C28.539 24.713 31.08 23.247 31.911 22.152C30.314 21.532 32.259 17.765 33.457 17.191C32.225 19.772 30.805 23.617 34.025 23.617C32.393 23.617 35.327 16.871 35.343 16.925C35.1569 16.3081 34.6943 16.2415 34.1421 16.162C33.7329 16.1032 33.2746 16.0372 32.843 15.735C31.2609 14.6278 30.4343 15.5809 29.6311 16.507C29.2809 16.9108 28.9351 17.3095 28.533 17.53C28.0529 17.7928 27.5826 17.9267 27.1565 18.048C26.1706 18.3288 25.421 18.5422 25.333 20.13ZM38.218 30.556C34.785 28.536 35.654 27.033 38.448 25.631C38.8082 25.4501 39.2795 25.1532 39.806 24.8216C41.4161 23.8072 43.5418 22.4681 44.581 23.132L38.218 30.556ZM34.6742 33.0045L34.6739 33.0045C32.9673 32.8993 31.1802 32.7893 29.622 33.128C30.829 33.43 33.773 34.293 31.032 35.022C32.015 36.429 33.61 36.339 34.656 35.104C34.4001 34.9781 34.2149 34.8349 34.0312 34.6928L34.0311 34.6928C33.9098 34.5989 33.789 34.5055 33.649 34.418C34.734 34.222 35.749 33.596 35.884 33.073C35.4882 33.0546 35.0835 33.0297 34.6742 33.0045ZM34.373 31.499C35.242 30.659 36.186 30.703 37.119 31.499H37.118C36.644 32.881 28.059 32.393 26.994 29.779C27.5184 29.8582 28.2011 29.8662 28.9431 29.8748C31.0017 29.8989 33.5167 29.9282 34.373 31.499ZM30.345 29.348C29.8943 29.2083 29.136 29.1189 28.367 29.0283C26.4656 28.8041 24.4991 28.5722 26.957 27.554C28.022 27.113 33.55 27.617 30.345 29.348ZM32.257 26.318C31.78 25.241 32.622 23.958 33.997 24.89C35.196 25.703 33.445 26.907 32.257 26.318ZM29.421 26.409C27.156 27.088 24.148 25.625 27.791 24.889C30.052 24.433 32.457 25.395 29.421 26.409Z" fill="#DC6243"/>
<path d="M35.774 25.832C32.866 22.845 40.116 23.12 41.284 22.069C42.134 22.353 48.274 16.692 49.769 17.044C48.695 18.304 46.381 22.326 44.722 22.326C43.447 22.326 42.157 22.136 41.17 23.044C39.726 24.374 37.333 25.05 35.774 25.832Z" fill="#F49774"/>
<path d="M36.727 22.18C35.135 23.036 33.629 19.644 36.378 19.974C38.204 20.194 40.054 19.82 41.798 20.121C40.547 21.608 38.742 22.427 36.727 22.18Z" fill="#F4B1A4"/>
<path fill-rule="evenodd" clip-rule="evenodd" d="M3.26501 14.483C3.62601 15.702 4.84901 16.149 5.99601 15.809C6.03222 15.8493 6.0549 15.9116 6.07615 15.9699L6.07616 15.9699C6.08601 15.997 6.09556 16.0232 6.10601 16.046C6.00638 16.0843 5.82231 16.1636 5.60226 16.2585L5.60225 16.2585L5.60224 16.2585L5.60223 16.2585L5.60222 16.2585C4.9896 16.5225 4.09809 16.9066 3.97301 16.861C3.75609 16.4283 3.41476 16.1086 3.07132 15.7869C2.83214 15.5628 2.59194 15.3378 2.39201 15.073C1.82601 14.325 1.49501 13.422 1.58401 12.476C1.72601 10.731 3.48201 8.807 5.34601 9.071C6.26601 9.204 7.03401 9.858 7.60601 10.554C7.76846 10.7433 7.90974 10.9418 8.04914 11.1377C8.34568 11.5544 8.63374 11.9591 9.09901 12.238C8.54101 12.95 7.98301 13.66 7.42301 14.371C7.09252 14.2249 7.193 13.997 7.30283 13.7479C7.33357 13.6781 7.36505 13.6067 7.38801 13.535C7.55101 13.018 7.67301 12.43 7.44901 11.91C6.93901 10.736 5.54401 10.696 4.60901 11.366C3.66301 12.044 2.91201 13.292 3.26501 14.483ZM11.69 16.404C11.8067 16.3788 11.8955 16.4207 11.9743 16.458C12.0894 16.5123 12.1833 16.5567 12.312 16.368L10.722 14.474C10.481 14.187 10.176 13.879 10.263 14.486C10.321 14.895 6.29401 18.163 6.04801 18.264C5.91318 18.3197 5.80256 18.2758 5.70184 18.2359C5.57099 18.1841 5.45685 18.1388 5.32801 18.327C5.52888 18.5655 5.72938 18.8042 5.9299 19.0429L5.93026 19.0433L5.93174 19.0451L5.93228 19.0457L5.9331 19.0467L5.93321 19.0468L5.93332 19.0469L5.93344 19.0471L5.93355 19.0472L5.93366 19.0473L5.93378 19.0475L5.93389 19.0476L5.93431 19.0481L5.93442 19.0483L5.93453 19.0484L5.93465 19.0485L5.93476 19.0487L5.93487 19.0488C6.20689 19.3726 6.47896 19.6965 6.75201 20.02C6.80353 20.0812 6.85391 20.1441 6.90442 20.2072C7.01077 20.3401 7.11769 20.4737 7.23701 20.593C7.42583 20.7818 7.38998 20.3246 7.38235 20.2273L7.38235 20.2273L7.38234 20.2272C7.38109 20.2112 7.3806 20.2049 7.38201 20.213C7.32864 19.9168 7.64084 19.6601 7.86039 19.4796L7.86045 19.4796C7.88769 19.4572 7.9135 19.436 7.93701 19.416C8.94101 18.532 11.442 16.437 11.69 16.404ZM15.113 20.935C15.446 21.336 15.691 21.769 15.636 22.309C15.6231 22.4367 15.5485 22.5942 15.4729 22.7539C15.3265 23.063 15.1762 23.3804 15.461 23.507L16.916 21.667C16.526 21.569 13.434 17.871 13.384 17.466L11.333 18.592C11.403 18.8751 11.7464 18.7859 12.0762 18.7002C12.2462 18.656 12.4125 18.6128 12.536 18.622C13.074 18.66 13.462 18.985 13.804 19.369C13.6985 19.4576 13.5786 19.5584 13.4479 19.6684L13.4436 19.672L13.4431 19.6724L13.443 19.6725L13.4429 19.6725C12.1852 20.7305 9.92653 22.6306 9.66601 22.674C9.61806 22.6816 9.52546 22.6421 9.42242 22.5982C9.21172 22.5083 8.95739 22.3999 8.95201 22.637C8.94907 22.7623 9.25091 23.0609 9.45228 23.2601L9.45229 23.2601L9.45237 23.2602C9.52415 23.3312 9.58316 23.3896 9.61101 23.423L11.058 25.145C11.2779 25.0447 11.235 24.9115 11.1852 24.757C11.1441 24.6297 11.0984 24.4879 11.191 24.338C11.3101 24.145 13.2458 22.512 14.409 21.5306L14.409 21.5305L14.4091 21.5305L14.4097 21.53C14.7111 21.2757 14.9605 21.0653 15.113 20.935ZM28.9615 36.5156L28.9615 36.5156L28.9614 36.5154C28.7668 36.2637 28.6168 36.0697 28.539 35.977L28.326 35.724C28.319 35.714 28.141 35.869 28.166 35.848C28.1126 35.8928 28.1297 35.9795 28.1492 36.0783C28.1705 36.1867 28.1948 36.3097 28.132 36.408C27.617 37.214 24.394 39.644 24.227 39.76C24.0532 39.8807 23.871 39.8608 23.7053 39.8428C23.5278 39.8235 23.3692 39.8062 23.26 39.966C23.3991 40.131 23.6154 40.4017 23.8547 40.7012L23.8548 40.7012C24.419 41.4073 25.1112 42.2734 25.22 42.291C25.437 42.3259 25.3979 42.0542 25.3681 41.8463C25.3551 41.7561 25.3439 41.678 25.356 41.642C25.4312 41.4165 26.8751 40.2125 27.5418 39.6566L27.66 39.558C27.8457 39.4021 28.0394 39.7121 28.1731 39.9261L28.1731 39.9261C28.1963 39.9633 28.2178 39.9976 28.237 40.026C28.449 40.341 28.544 40.676 28.43 41.045C28.4077 41.1163 28.3576 41.198 28.3061 41.2819C28.1844 41.4802 28.0551 41.691 28.268 41.807C28.4389 41.6072 28.7415 41.2542 29.0455 40.8996L29.052 40.8919L29.0552 40.8882L29.06 40.8827C29.4663 40.4087 29.8714 39.9361 29.964 39.827C30.0849 39.6869 29.8281 39.7409 29.71 39.7657L29.71 39.7657L29.7099 39.7657C29.6679 39.7745 29.6435 39.7797 29.66 39.771C29.42 39.895 29.194 39.924 28.97 39.753C28.907 39.706 28.263 39.051 28.327 38.996C28.3925 38.941 28.4615 38.8775 28.5334 38.8114C28.7685 38.595 29.0345 38.3502 29.311 38.282C29.871 38.144 30.338 39.266 30.421 39.664C30.499 40.039 30.488 40.434 30.371 40.8C30.3509 40.8631 30.321 40.9229 30.2926 40.9797C30.208 41.1489 30.1374 41.2902 30.383 41.404L31.766 39.508C31.6757 39.5126 31.586 39.4907 31.508 39.445C30.9243 39.0551 29.6574 37.416 28.9615 36.5156ZM20.304 31.317C20.8592 30.8446 21.5533 30.5662 22.281 30.524C23.439 30.458 24.613 30.988 25.371 31.998C26.483 33.482 26.301 35.559 24.871 36.764C23.186 37.965 21.104 37.772 19.812 36.07C18.688 34.592 18.874 32.52 20.304 31.317ZM23.471 31.91C24.42 31.802 24.974 32.709 24.57 33.678C24.15 34.658 23.14 35.667 22.146 36.058C20.966 36.523 20.135 35.521 20.615 34.401C21.037 33.417 22.045 32.418 23.041 32.021C23.191 31.962 23.335 31.926 23.471 31.911V31.91ZM20.9743 27.3709C20.8816 27.3321 20.7855 27.292 20.688 27.28V27.279C19.9923 27.1958 19.2093 27.3412 18.4705 27.4784H18.4705L18.4705 27.4784C18.1877 27.5309 17.9114 27.5822 17.649 27.619C17.002 27.71 15.477 29.195 15.379 29.475C15.3685 29.5138 15.3897 29.6015 15.414 29.7024C15.4687 29.929 15.5395 30.2225 15.305 30.181C15.2258 30.1662 15.0359 29.9081 14.9094 29.7361L14.9093 29.736L14.9092 29.7359C14.8649 29.6756 14.8283 29.6259 14.807 29.601L13.19 27.681C13.3333 27.4781 13.4542 27.5471 13.5938 27.6268C13.7046 27.69 13.8271 27.76 13.982 27.706C14.2482 27.6126 15.1602 26.8353 15.5918 26.4675L15.5922 26.4671L15.5944 26.4652C15.6513 26.4168 15.6997 26.3755 15.737 26.344C16.2908 25.8782 16.7777 24.171 16.9369 23.6127C16.9623 23.5238 16.9793 23.464 16.987 23.443C17.048 23.273 17.069 22.298 17.045 22.318C17.2556 22.1443 17.4 22.3575 17.5464 22.5735C17.5905 22.6386 17.6347 22.7039 17.681 22.759L19.461 24.871C19.3288 25.0609 19.2068 25.0053 19.072 24.944C18.9428 24.8852 18.8018 24.821 18.629 24.963C18.4704 25.0939 18.0892 26.1921 17.9162 26.6903L17.877 26.803C17.9153 26.7962 17.9636 26.788 18.0199 26.7784L18.02 26.7784C18.5525 26.6876 19.7961 26.4755 19.939 26.225C20.0064 26.1066 19.967 26.0054 19.9317 25.9146C19.8853 25.7952 19.8458 25.6938 20.065 25.595L21.512 27.307C21.3596 27.5318 21.1746 27.4545 20.9743 27.3709ZM44.927 34.049C45.051 34.47 45.121 34.914 45.067 35.354C44.997 35.92 44.431 37.252 43.656 36.873C43.1216 36.6107 42.6342 36.1625 42.1677 35.7336C41.9707 35.5525 41.7775 35.3748 41.586 35.216C42.106 34.608 42.564 34.081 43.439 34.376C43.679 34.456 43.885 34.352 43.633 34.206C43.5831 34.1769 43.4791 34.1129 43.3429 34.0289C42.7618 33.6707 41.593 32.9503 41.516 33.037C41.4365 33.1288 41.5001 33.2537 41.5744 33.3995C41.6636 33.5745 41.7681 33.7796 41.659 33.994C41.5442 34.2189 41.3693 34.4198 41.199 34.6153C41.1498 34.6718 41.1009 34.7279 41.054 34.784C40.9858 34.7264 40.9108 34.6683 40.8343 34.609L40.8341 34.6089L40.834 34.6087C40.3872 34.2624 39.8884 33.8757 40.369 33.32C40.721 32.892 41.18 32.56 41.73 32.45C41.8595 32.4236 42.0457 32.447 42.2374 32.471C42.5907 32.5153 42.9627 32.562 43.032 32.304C42.609 32.1 42.186 31.8971 41.763 31.6942C41.481 31.5589 41.199 31.4236 40.917 31.288C41.0094 31.7056 39.5517 33.3469 38.711 34.2935C38.505 34.5255 38.336 34.7157 38.236 34.836C38.2166 34.859 38.1781 34.8971 38.1317 34.943C38.001 35.0721 37.808 35.263 37.805 35.353C37.7996 35.6048 38.1345 35.4514 38.2156 35.4142L38.2157 35.4142C38.2241 35.4104 38.2298 35.4078 38.232 35.407C38.547 35.291 42.656 38.724 42.758 38.959C42.7887 39.045 42.7582 39.1331 42.7306 39.2128C42.6998 39.3017 42.6726 39.3802 42.738 39.434C42.7377 39.4337 42.7378 39.4338 42.7384 39.4344L42.7409 39.4366C42.7623 39.4563 42.8878 39.5719 42.903 39.554C42.9454 39.5031 43.0561 39.3602 43.2135 39.1569L43.2135 39.1569L43.2136 39.1568C43.9956 38.1472 45.9317 35.6478 46.392 35.518C45.875 34.7304 45.3627 33.9397 44.855 33.146C44.5683 33.2718 44.7035 33.5544 44.8253 33.8089C44.8662 33.8945 44.9056 33.9768 44.927 34.049ZM37.2113 39.2409C37.9324 38.7948 39.7731 37.6562 40.927 38.401C42.059 39.343 41.812 40.881 41.059 41.981C40.698 42.506 40.242 42.945 39.765 43.364L39.7338 43.3902C39.3836 43.6836 39.1251 43.9001 39.059 44.379L36.799 42.732C36.9116 42.4365 37.1371 42.5631 37.3597 42.688C37.4415 42.7339 37.5228 42.7796 37.598 42.804C37.989 42.933 38.414 42.969 38.814 42.863C39.498 42.681 40.191 42.04 40.374 41.344C40.602 40.479 39.753 40.217 39.107 40.52C38.796 40.6659 38.4992 40.8614 38.2066 41.0541C38.0899 41.131 37.974 41.2073 37.858 41.28C37.205 41.687 36.437 41.995 35.7 41.611C35.052 41.275 34.611 40.621 34.611 39.885C34.611 39.088 35.064 38.39 35.598 37.835C35.7222 37.7064 35.8723 37.5799 36.0268 37.4497C36.4297 37.1102 36.8629 36.7451 36.946 36.25C37.501 36.626 38.056 37.001 38.613 37.376C38.7051 37.4389 38.6888 37.46 38.6383 37.5256L38.6383 37.5257C38.623 37.5456 38.6045 37.5695 38.585 37.6C38.5378 37.6738 38.2147 37.6375 37.9506 37.6079L37.9505 37.6079C37.8174 37.5929 37.6993 37.5796 37.639 37.583C37.043 37.619 36.443 37.88 36.139 38.42C35.789 39.042 36.276 39.714 36.951 39.395C37.0004 39.3714 37.09 39.316 37.2113 39.2409ZM58.544 10.336C58.5089 10.352 58.4786 10.3768 58.456 10.408L57.666 11.358L56.852 12.34C56.824 12.3741 56.7956 12.405 56.7692 12.4337L56.7691 12.4338C56.6376 12.577 56.5572 12.6646 56.827 12.807C57.37 12.535 60.345 17.575 60.079 18.299C59.609 18.543 55.589 15.016 55.481 14.783C55.4717 14.7561 55.4819 14.6911 55.4943 14.613C55.5255 14.4159 55.5699 14.1349 55.345 14.17C55.2346 14.187 55.0221 14.4988 54.8812 14.7056L54.8812 14.7057L54.8811 14.7057L54.881 14.706C54.8318 14.7782 54.7913 14.8375 54.767 14.867L54.19 15.562C54.3209 15.7528 54.4165 15.7077 54.5354 15.6515C54.6127 15.615 54.6999 15.5738 54.813 15.59C55.0411 15.6358 55.8569 16.3229 56.1904 16.6039L56.1905 16.6039L56.1905 16.604L56.1906 16.604L56.269 16.67C56.1125 16.6757 55.8669 16.6871 55.6029 16.6994C55.0743 16.724 54.4721 16.752 54.364 16.744C54.0282 16.7858 53.987 16.6382 53.9405 16.4717C53.9059 16.3477 53.8684 16.2133 53.704 16.139L52.226 17.934L51.366 18.977C51.3619 18.982 51.3583 18.986 51.3553 18.9895C51.3476 18.9982 51.3438 19.0025 51.3443 19.0063C51.3447 19.0101 51.3494 19.0134 51.3588 19.0198C51.3675 19.0258 51.3801 19.0346 51.397 19.049C51.4271 19.0737 51.45 19.0937 51.4682 19.1094C51.5079 19.1439 51.5242 19.1581 51.5406 19.1581C51.5521 19.158 51.5636 19.151 51.5831 19.1389C51.6139 19.1199 51.6647 19.0886 51.767 19.053C52.095 18.938 56.023 22.253 56.165 22.422C56.2768 22.5552 56.2658 22.6986 56.2557 22.8303C56.2436 22.9874 56.2329 23.128 56.433 23.215L57.601 21.797C57.6136 21.7817 57.6249 21.7699 57.6342 21.7602C57.6687 21.7244 57.6754 21.7174 57.614 21.667C57.4611 21.5411 57.3828 21.5963 57.286 21.6646C57.2075 21.72 57.1167 21.784 56.964 21.767C56.6647 21.7177 54.7465 20.1176 53.6045 19.165L53.6033 19.164L53.599 19.1604L53.5975 19.1592L53.5914 19.1541C53.4186 19.01 53.264 18.881 53.136 18.775L58.458 18.578C58.653 18.571 59.198 19.159 59.153 19.368C59.1371 19.4427 59.1027 19.5055 59.0723 19.5611C59.0033 19.6871 58.9545 19.7761 59.187 19.883C59.3104 19.7346 59.4366 19.5866 59.563 19.4383L59.563 19.4382L59.5631 19.4382L59.5632 19.4381L59.5633 19.438L59.5633 19.4379C59.7555 19.2125 59.9481 18.9865 60.132 18.758L60.28 18.574C60.3377 18.5279 60.3839 18.469 60.415 18.402L60.525 18.265C60.5515 18.2347 60.5838 18.1982 60.6203 18.1568L60.6227 18.1541L60.6229 18.1539C60.9666 17.7646 61.6835 16.9528 61.587 16.869C61.4471 16.7477 61.3406 16.8053 61.2265 16.8671C61.096 16.9377 60.9553 17.0138 60.743 16.834C60.5375 16.6867 60.0502 15.8484 59.8567 15.5155L59.808 15.432C59.6546 15.1715 60.0886 14.9117 60.348 14.7565C60.3793 14.7378 60.4081 14.7205 60.433 14.705C60.937 14.392 62.54 13.938 62.693 14.932C62.7038 15.004 62.6724 15.0803 62.6429 15.1518C62.604 15.2461 62.5686 15.3321 62.638 15.389C62.6433 15.3935 62.6514 15.402 62.6613 15.4123C62.7035 15.4564 62.7792 15.5353 62.814 15.494L64.956 12.918C64.9359 12.9011 64.9148 12.8799 64.893 12.8581C64.8467 12.8115 64.797 12.7617 64.746 12.742C64.272 13.215 59.28 11.222 58.916 10.947C58.8397 10.9167 58.793 10.7721 58.7473 10.6306C58.6936 10.4644 58.6413 10.3025 58.544 10.336ZM60.606 13.849C59.845 13.527 59.083 13.207 58.319 12.889L59.335 14.637C59.5237 14.4503 59.7319 14.2843 59.956 14.142H59.958C60.159 14.015 60.376 13.913 60.606 13.849ZM51.731 20.642C50.624 20.566 49.501 21.052 48.708 21.959C47.473 23.459 47.596 25.637 49.101 26.904C50.619 28.154 52.781 27.836 54.017 26.354C55.249 24.858 55.164 22.674 53.632 21.42C53.0974 20.9654 52.4319 20.6928 51.732 20.642H51.731ZM52.024 22.904C51.592 22.615 50.904 22.239 50.282 22.201C49.909 22.178 49.559 22.278 49.302 22.592C48.487 23.588 49.764 24.718 50.509 25.256C51.253 25.793 52.633 26.57 53.433 25.73C53.4395 25.7245 53.4455 25.7185 53.451 25.712C53.584 25.545 53.549 25.584 53.501 25.642C54.238 24.591 52.804 23.425 52.024 22.904ZM47.155 26.481C45.941 26.414 44.752 26.977 43.856 28.057C43.3323 28.6859 42.81 29.3161 42.2879 29.9461L41.934 30.373C42.0575 30.5528 42.1923 30.515 42.3428 30.4729C42.4702 30.4372 42.6088 30.3984 42.761 30.486C43.044 30.649 46.814 33.798 46.876 33.971C46.9225 34.1012 46.8965 34.1856 46.8745 34.2573C46.8463 34.3491 46.8245 34.4199 46.97 34.539C47.081 34.632 49.914 31.134 50.173 30.519C50.621 29.38 50.264 28.132 49.353 27.344C49.426 27.404 49.53 27.489 49.311 27.307C48.621 26.789 47.884 26.52 47.155 26.48V26.481ZM46.368 28.098C46.286 28.077 46.197 28.064 46.102 28.061V28.06C45.441 28.035 44.52 28.418 44.045 28.939C43.886 29.114 47.867 32.338 48.065 32.148C48.2477 31.9726 48.3215 31.9091 48.3621 31.8742C48.411 31.8321 48.4117 31.8315 48.497 31.726C49.752 30.213 47.79 28.461 46.368 28.098Z" fill="white"/>
</svg>
