<svg width="32" height="32" fill="none" xmlns="http://www.w3.org/2000/svg">
  <path fill="#81B3D3" d="M0 0h32v32H0z"/>
  <path fill-rule="evenodd" clip-rule="evenodd" d="M11.3 6c0-.5-.4-1-1-1H7a1 1 0 0 0-1 1v24c0 .6.4 1 1 1h5c.6 0 1-.4 1-1v-4c0-.6.4-1 1-1h4c.6 0 1 .4 1 1v4c0 .6.4 1 1 1h5.2c.6 0 1-.4 1-1V6c0-.5-.4-1-1-1h-3a1 1 0 0 0-1 1v3.1c0 .6-.5 1-1 1h-7.9a1 1 0 0 1-1-1v-3Zm10.4 1.6c0-.2.2-.4.5-.4h1.7c.2 0 .4.2.4.4v1.7c0 .2-.2.4-.4.4h-1.7a.4.4 0 0 1-.5-.4V7.6Zm-13.1 4c-.3 0-.5.2-.5.5v1.7c0 .2.2.4.5.4h1.7c.2 0 .4-.2.4-.4V12c0-.3-.2-.5-.4-.5H8.6Zm13.6 0c-.3 0-.5.2-.5.5v1.7c0 .2.2.4.5.4h1.7c.2 0 .4-.2.4-.4V12c0-.3-.2-.5-.4-.5h-1.7Zm0 4.5c-.3 0-.5.2-.5.4v1.7c0 .3.2.5.5.5h1.7c.2 0 .4-.2.4-.5v-1.7c0-.2-.2-.4-.4-.4h-1.7Zm-.5 4.9c0-.2.2-.4.5-.4h1.7c.2 0 .4.2.4.4v1.7c0 .2-.2.4-.4.4h-1.7a.4.4 0 0 1-.5-.4V21ZM8.6 7.2c-.3 0-.5.2-.5.4v1.7c0 .2.2.4.5.4h1.7c.2 0 .4-.2.4-.4V7.6c0-.2-.2-.4-.4-.4H8.6Zm13.1 18.3c0-.3.2-.5.5-.5h1.7c.2 0 .4.2.4.5v1.7c0 .2-.2.4-.4.4h-1.7a.4.4 0 0 1-.5-.4v-1.7ZM8.6 16c-.3 0-.5.2-.5.4v1.7c0 .3.2.5.5.5h1.7c.2 0 .4-.2.4-.5v-1.7c0-.2-.2-.4-.4-.4H8.6ZM8 21c0-.2.2-.4.5-.4h1.7c.2 0 .4.2.4.4v1.7c0 .2-.2.4-.4.4H8.6a.4.4 0 0 1-.5-.4V21Zm9.4-.4c-.2 0-.4.2-.4.4v1.7c0 .2.2.4.4.4h1.7c.2 0 .4-.2.4-.4V21c0-.2-.2-.4-.4-.4h-1.7Zm-.2-4c0-.3.2-.5.4-.5h1.7c.2 0 .4.2.4.4v1.7c0 .3-.2.5-.4.5h-1.7a.4.4 0 0 1-.4-.5v-1.7Zm.4-5c-.2 0-.4.2-.4.5v1.7c0 .2.2.4.4.4h1.7c.2 0 .4-.2.4-.4V12c0-.3-.2-.5-.4-.5h-1.7ZM12.6 21c0-.2.2-.4.4-.4h1.7c.3 0 .4.2.4.4v1.7c0 .2-.1.4-.4.4H13a.4.4 0 0 1-.4-.4V21Zm.6-4.9c-.2 0-.4.2-.4.4v1.7c0 .3.2.5.4.5H15c.3 0 .5-.2.5-.5v-1.7c0-.2-.2-.4-.5-.4h-1.7Zm-.4-4c0-.3.2-.5.4-.5H15c.3 0 .5.2.5.5v1.7c0 .2-.2.4-.5.4h-1.7a.4.4 0 0 1-.4-.4V12ZM8.6 25c-.3 0-.5.2-.5.4v1.7c0 .3.2.5.5.5h1.7c.2 0 .4-.2.4-.5v-1.7c0-.2-.2-.4-.4-.4H8.6Z" fill="#fff"/>
  <path fill-rule="evenodd" clip-rule="evenodd" d="M13.2 1a1 1 0 0 0-1 1v6c0 .6.4 1 1 1h6c.6 0 1-.4 1-1V2c0-.6-.4-1-1-1h-6ZM15 5.5h2.6V8H19V2h-1.4v2.5H15V2h-1.3v6H15V5.4Z" fill="#fff"/>
</svg>
